<svg xmlns="http://www.w3.org/2000/svg" viewBox="0 0 100 100" fill="none">
  <rect width="100" height="100" rx="18" fill="#202020"/>
  <g transform="translate(16 16) scale(.68)" stroke="#fff" stroke-width="5.5" stroke-linecap="round" stroke-linejoin="round">
    <path d="M15 29H8a5 5 0 0 0-5 5v48a6 6 0 0 0 6 6h29c5.5 0 9.5 1.8 12 5 2.5-3.2 6.5-5 12-5h29a6 6 0 0 0 6-6V34a5 5 0 0 0-5-5h-7"/>
    <path d="M15 18v57c14.5 0 26.2 3.7 35 12V30C41.2 22 29.5 18 15 18Z"/>
    <path d="M50 30c8.8-8 20.5-12 35-12v13"/>
    <path d="M85 64v11c-14.5 0-26.2 3.7-35 12"/>
    <path d="m59 54 9 9 21-23"/>
  </g>
</svg>
